<svg xmlns="http://www.w3.org/2000/svg" width="200" height="48" viewBox="0 0 200 48">
    <defs>
        <style>
            .cls-1{fill:none}.cls-2{clip-path:url(#clip-path)}.cls-3,.cls-4,.cls-5,.cls-6,.cls-7{fill:#00d1c7}.cls-3,.cls-4,.cls-5{stroke:#00d1c7;stroke-miterlimit:10}.cls-3{stroke-width:.313px}.cls-4{stroke-width:.172px}.cls-5{stroke-width:.345px}.cls-7{opacity:.49}
        </style>
        <clipPath id="clip-path">
            <path d="M0 0h200v48H0z" class="cls-1"/>
        </clipPath>
    </defs>
    <g id="Logo1" class="cls-2">
        <g id="Group_16601" data-name="Group 16601" transform="translate(148.195 32.599)">
            <g id="Group_16600" data-name="Group 16600">
                <path id="Path_28580" d="M103.909 134.87a1.758 1.758 0 0 1-.063-.224.241.241 0 0 1 0-.146.251.251 0 0 1 .074-.1.643.643 0 0 1 .139-.093l.869-.4a.324.324 0 0 1 .356.022.827.827 0 0 1 .2.278 1.6 1.6 0 0 0 .432.625 2.833 2.833 0 0 0 .645.443 3.25 3.25 0 0 0 .7.261 2.667 2.667 0 0 0 .613.085 3.245 3.245 0 0 0 .767-.1 3.044 3.044 0 0 0 .788-.309 2.04 2.04 0 0 0 .621-.545 1.4 1.4 0 0 0 .015-1.583 1.9 1.9 0 0 0-.617-.5 3.856 3.856 0 0 0-.849-.315 42.896 42.896 0 0 1-.936-.246 8.186 8.186 0 0 1-1.466-.534 4.665 4.665 0 0 1-1.093-.73 2.888 2.888 0 0 1-.689-.951 2.928 2.928 0 0 1-.237-1.2 3.1 3.1 0 0 1 .284-1.332 3.031 3.031 0 0 1 .789-1.032 3.617 3.617 0 0 1 1.214-.665 4.915 4.915 0 0 1 1.566-.239 4.994 4.994 0 0 1 1.208.13 3.068 3.068 0 0 1 .9.378 3.437 3.437 0 0 1 .721.621q.331.37.686.854a.746.746 0 0 1 .117.315c.007.089-.048.174-.163.259l-.714.537c-.139.082-.245.1-.319.065a.754.754 0 0 1-.235-.209c-.143-.165-.278-.322-.413-.476a2.586 2.586 0 0 0-.456-.406 2.15 2.15 0 0 0-.578-.282 2.5 2.5 0 0 0-.773-.106 3.236 3.236 0 0 0-.775.093 2.01 2.01 0 0 0-.671.291 1.534 1.534 0 0 0-.476.506 1.426 1.426 0 0 0-.178.726.916.916 0 0 0 .221.587 2.4 2.4 0 0 0 .556.489 4.008 4.008 0 0 0 .739.374 6.312 6.312 0 0 0 .776.246 9.185 9.185 0 0 1 1.585.511 4.959 4.959 0 0 1 1.225.739 3.12 3.12 0 0 1 .8 1 2.885 2.885 0 0 1 .28 1.29 3.077 3.077 0 0 1-1.19 2.507 4.074 4.074 0 0 1-1.336.68 5.835 5.835 0 0 1-1.688.237 5.083 5.083 0 0 1-1.182-.146 4.371 4.371 0 0 1-1.145-.448 4.122 4.122 0 0 1-.977-.756 3.049 3.049 0 0 1-.667-1.076z" class="cls-3" data-name="Path 28580" transform="translate(-103.837 -122.1)"/>
                <path id="Path_28581" d="M119.424 135.6a5.852 5.852 0 0 1-1.824 1.264 5.5 5.5 0 0 1-2.255.46 5.731 5.731 0 0 1-1.575-.215 5.875 5.875 0 0 1-1.427-.61 6.192 6.192 0 0 1-1.214-.945 6.119 6.119 0 0 1-.945-1.219 5.993 5.993 0 0 1-.612-1.433 5.94 5.94 0 0 1 0-3.167 5.954 5.954 0 0 1 .612-1.427 6.258 6.258 0 0 1 .945-1.216 6.017 6.017 0 0 1 1.214-.938 5.947 5.947 0 0 1 1.423-.608 5.708 5.708 0 0 1 1.579-.215 5.5 5.5 0 0 1 2.255.461 5.821 5.821 0 0 1 1.824 1.264v-1.114a.354.354 0 0 1 .4-.4h.941c.285 0 .428.132.428.4v10.8a.381.381 0 0 1-.117.293.412.412 0 0 1-.284.109h-.951a.415.415 0 0 1-.306-.119.392.392 0 0 1-.115-.284zm.093-4.281a4.178 4.178 0 0 0-.328-1.638 4.389 4.389 0 0 0-.9-1.364 4.263 4.263 0 0 0-1.325-.932 3.854 3.854 0 0 0-1.62-.347 3.777 3.777 0 0 0-1.607.347 4.257 4.257 0 0 0-1.314.932 4.327 4.327 0 0 0-.884 1.364 4.29 4.29 0 0 0 0 3.273 4.49 4.49 0 0 0 .884 1.381 4.292 4.292 0 0 0 1.314.954 3.705 3.705 0 0 0 1.607.358 3.78 3.78 0 0 0 1.62-.358 4.3 4.3 0 0 0 1.325-.954 4.556 4.556 0 0 0 .9-1.381 4.207 4.207 0 0 0 .327-1.636z" class="cls-3" data-name="Path 28581" transform="translate(-99.127 -122.107)"/>
                <path id="Path_28582" d="M119.117 138.222a.355.355 0 0 1-.4.4h-.94c-.285 0-.43-.133-.43-.4v-14.229a.381.381 0 0 1 .119-.291.405.405 0 0 1 .284-.111h.949a.409.409 0 0 1 .306.119.393.393 0 0 1 .115.284z" class="cls-3" data-name="Path 28582" transform="translate(-92.312 -123.591)"/>
                <path id="Path_28583" d="M128.6 134.472a1.458 1.458 0 0 1 .178-.137.35.35 0 0 1 .2-.065.346.346 0 0 1 .263.165c.124.163.221.3.3.4s.137.187.187.248.083.115.109.145a.515.515 0 0 1 .072.115.282.282 0 0 1 .028.133.392.392 0 0 1-.078.215 1.391 1.391 0 0 1-.269.267 7.106 7.106 0 0 1-.817.562 5.891 5.891 0 0 1-.89.434 5.547 5.547 0 0 1-.98.284 5.743 5.743 0 0 1-1.092.1 5.825 5.825 0 0 1-1.57-.215 5.992 5.992 0 0 1-1.429-.613 6.3 6.3 0 0 1-2.178-2.157 6.033 6.033 0 0 1-.621-1.429 5.756 5.756 0 0 1-.219-1.583 6.179 6.179 0 0 1 .206-1.588 6.1 6.1 0 0 1 .584-1.434 5.887 5.887 0 0 1 2.127-2.153 6.077 6.077 0 0 1 1.451-.608 6.291 6.291 0 0 1 1.647-.213 6.149 6.149 0 0 1 1.36.154 6.353 6.353 0 0 1 1.3.452 5.97 5.97 0 0 1 1.164.734 5.8 5.8 0 0 1 .971 1 5.511 5.511 0 0 1 .869 1.79 8.144 8.144 0 0 1 .263 2.309c0 .287-.133.428-.4.428h-9.62a4.142 4.142 0 0 0 .545 1.351 4.628 4.628 0 0 0 .93 1.082 4.216 4.216 0 0 0 1.21.721 3.746 3.746 0 0 0 1.377.261 4 4 0 0 0 .908-.1 3.648 3.648 0 0 0 .739-.258 4.031 4.031 0 0 0 .617-.363c.187-.139.371-.278.547-.426zm-5-6.753a4.55 4.55 0 0 0-1.2 1.171 4.255 4.255 0 0 0-.686 1.557h8.25a3.573 3.573 0 0 0-.469-1.377 3.824 3.824 0 0 0-.925-1.06 4.306 4.306 0 0 0-1.256-.68 4.383 4.383 0 0 0-1.445-.243 4.494 4.494 0 0 0-1.173.156 4.125 4.125 0 0 0-1.096.476z" class="cls-3" data-name="Path 28583" transform="translate(-90.223 -122.094)"/>
                <path id="Path_28584" d="M127.322 134.87a1.762 1.762 0 0 1-.063-.224.273.273 0 0 1 0-.146.269.269 0 0 1 .074-.1.662.662 0 0 1 .141-.093l.867-.4a.323.323 0 0 1 .356.022.828.828 0 0 1 .2.278 1.6 1.6 0 0 0 .434.625 2.781 2.781 0 0 0 .643.443 3.249 3.249 0 0 0 .7.261 2.681 2.681 0 0 0 .613.085 3.244 3.244 0 0 0 .767-.1 3.056 3.056 0 0 0 .789-.309 2.061 2.061 0 0 0 .621-.545 1.271 1.271 0 0 0 .25-.789 1.255 1.255 0 0 0-.237-.793 1.876 1.876 0 0 0-.617-.5 3.788 3.788 0 0 0-.849-.315 42.724 42.724 0 0 1-.934-.246 8.081 8.081 0 0 1-1.466-.534 4.678 4.678 0 0 1-1.1-.73 2.888 2.888 0 0 1-.689-.951 2.928 2.928 0 0 1-.237-1.2 3.122 3.122 0 0 1 .284-1.332 3.031 3.031 0 0 1 .789-1.032 3.635 3.635 0 0 1 1.214-.665 4.923 4.923 0 0 1 1.566-.239 4.994 4.994 0 0 1 1.208.13 3.047 3.047 0 0 1 .9.378 3.438 3.438 0 0 1 .721.621q.331.37.686.854a.746.746 0 0 1 .117.315c.007.089-.048.174-.163.259l-.712.537c-.141.082-.246.1-.321.065a.775.775 0 0 1-.235-.209l-.411-.476a2.653 2.653 0 0 0-.456-.406 2.161 2.161 0 0 0-.58-.282 2.5 2.5 0 0 0-.771-.106 3.24 3.24 0 0 0-.776.093 2.044 2.044 0 0 0-.671.291 1.548 1.548 0 0 0-.474.506 1.426 1.426 0 0 0-.178.726.914.914 0 0 0 .219.587 2.4 2.4 0 0 0 .556.489 4.066 4.066 0 0 0 .739.374 6.415 6.415 0 0 0 .776.246 9.132 9.132 0 0 1 1.585.511 4.972 4.972 0 0 1 1.227.739 3.114 3.114 0 0 1 .795 1 2.885 2.885 0 0 1 .282 1.29 3.091 3.091 0 0 1-1.19 2.507 4.1 4.1 0 0 1-1.338.68 5.835 5.835 0 0 1-1.688.237 5.082 5.082 0 0 1-1.182-.146 4.371 4.371 0 0 1-1.145-.448 4.159 4.159 0 0 1-.977-.756 3.1 3.1 0 0 1-.659-1.077z" class="cls-3" data-name="Path 28584" transform="translate(-83.86 -122.1)"/>
            </g>
        </g>
        <g id="Group_16604" data-name="Group 16604">
            <g id="Group_16602" data-name="Group 16602" transform="translate(42.303 6.829)">
                <path id="Path_28585" d="M57.045 125.866a1.973 1.973 0 0 0 .1-.489c.015-.178.022-.361.022-.554v-.15a.522.522 0 0 0-.006-.083.519.519 0 0 1-.006-.083v-.15c-.215.23-.432.456-.654.678a4.531 4.531 0 0 1-.739.593 3.776 3.776 0 0 1-.915.423 3.961 3.961 0 0 1-1.188.161 7.4 7.4 0 0 1-2.776-.511 6.6 6.6 0 0 1-2.209-1.427 6.419 6.419 0 0 1-1.455-2.192 7.356 7.356 0 0 1-.523-2.809 7.7 7.7 0 0 1 .523-2.848 7.038 7.038 0 0 1 1.455-2.309 6.727 6.727 0 0 1 2.209-1.544 6.819 6.819 0 0 1 2.776-.562 4.737 4.737 0 0 1 1.255.156 4.394 4.394 0 0 1 1.038.428 4.59 4.59 0 0 1 .862.637 8.17 8.17 0 0 1 .721.778l.311-.99.122-.343a.84.84 0 0 1 .145-.261.549.549 0 0 1 .226-.161.987.987 0 0 1 .361-.056h1.655a.921.921 0 0 1 .311.056 1 1 0 0 1 .282.156.739.739 0 0 1 .206.256.783.783 0 0 1 .078.354v11.3a7.975 7.975 0 0 1-.565 3.087 6.475 6.475 0 0 1-3.877 3.708 8.364 8.364 0 0 1-2.885.489 8.5 8.5 0 0 1-1.288-.106 9.467 9.467 0 0 1-1.371-.317 8.1 8.1 0 0 1-1.321-.539 5.346 5.346 0 0 1-1.129-.76 1.143 1.143 0 0 1-.282-.306.74.74 0 0 1-.117-.406 1.061 1.061 0 0 1 .211-.587l1.054-1.455a1.5 1.5 0 0 1 .289-.25.525.525 0 0 1 .287-.083 1.133 1.133 0 0 1 .612.267 2.239 2.239 0 0 0 .638.428 4.417 4.417 0 0 0 .745.256 4.757 4.757 0 0 0 .754.12q.372.028.673.028a4.373 4.373 0 0 0 1.043-.132 4.1 4.1 0 0 0 1.016-.395 3.464 3.464 0 0 0 .834-.639 2.01 2.01 0 0 0 .492-.862zm-6.351-6.6a4.09 4.09 0 0 0 .228 1.382 3.277 3.277 0 0 0 .649 1.1 2.993 2.993 0 0 0 1.017.732 3.168 3.168 0 0 0 1.316.267 3.585 3.585 0 0 0 1.338-.25 3.363 3.363 0 0 0 1.093-.693 3.491 3.491 0 0 0 .749-1.043 3.392 3.392 0 0 0 .317-1.3v-.361a3.386 3.386 0 0 0-.317-1.282 3.641 3.641 0 0 0-.749-1.066 3.566 3.566 0 0 0-1.093-.734 3.329 3.329 0 0 0-1.338-.272 3.009 3.009 0 0 0-1.316.284 3.149 3.149 0 0 0-1.017.762 3.373 3.373 0 0 0-.649 1.121 4.022 4.022 0 0 0-.228 1.358z" class="cls-4" data-name="Path 28585" transform="translate(-46.697 -108.055)"/>
                <path id="Path_28586" d="M69.549 126.054a.688.688 0 0 1-.306.156 1.511 1.511 0 0 1-.306.033h-1.675a.727.727 0 0 1-.589-.265 1.153 1.153 0 0 1-.167-.278 2.338 2.338 0 0 1-.111-.321l-.233-1.086a2.721 2.721 0 0 1-.554.726 4.511 4.511 0 0 1-.962.7 5.989 5.989 0 0 1-2.935.741 4.949 4.949 0 0 1-2.244-.487 4.867 4.867 0 0 1-1.647-1.332 5.89 5.89 0 0 1-1.017-1.972 8.174 8.174 0 0 1-.343-2.4v-7.274a.965.965 0 0 1 .182-.638.724.724 0 0 1 .584-.217h2.565a1 1 0 0 1 .656.161.851.851 0 0 1 .176.628v7.237a2.276 2.276 0 0 0 .183.906 2.511 2.511 0 0 0 .495.754 2.321 2.321 0 0 0 .726.517 2.116 2.116 0 0 0 .884.189 3.158 3.158 0 0 0 .865-.133 2.81 2.81 0 0 0 .865-.417 2.357 2.357 0 0 0 .667-.728 2.026 2.026 0 0 0 .267-1.066v-7.226a1.052 1.052 0 0 1 .072-.378.6.6 0 0 1 .217-.289.983.983 0 0 1 .271-.122 1.173 1.173 0 0 1 .295-.033h2.509a.782.782 0 0 1 .9.854v12.428a.8.8 0 0 1-.095.387.7.7 0 0 1-.261.278z" class="cls-4" data-name="Path 28586" transform="translate(-38.369 -107.942)"/>
                <path id="Path_28587" d="M75.848 126.787a6.963 6.963 0 0 1-.682.593 5.663 5.663 0 0 1-.832.528 5.171 5.171 0 0 1-.967.378 4.1 4.1 0 0 1-1.093.143 6.756 6.756 0 0 1-2.782-.565 6.673 6.673 0 0 1-2.187-1.549A7.145 7.145 0 0 1 65.872 124a8.212 8.212 0 0 1 0-5.736 7.139 7.139 0 0 1 1.433-2.309 6.578 6.578 0 0 1 2.187-1.544 6.814 6.814 0 0 1 2.782-.562 5.457 5.457 0 0 1 1.116.106 4.026 4.026 0 0 1 .923.306 4.18 4.18 0 0 1 .765.476 6.044 6.044 0 0 1 .662.612v-4.631a.879.879 0 0 1 .215-.6.824.824 0 0 1 .65-.245h2.5a.863.863 0 0 1 .306.061 1.025 1.025 0 0 1 .295.172.886.886 0 0 1 .215.267.716.716 0 0 1 .083.343v16.6c0 .571-.3.856-.9.856h-2.178a.856.856 0 0 1-.345-.056.547.547 0 0 1-.206-.161 1.122 1.122 0 0 1-.15-.267q-.067-.161-.167-.372zm-6.5-5.652a4.056 4.056 0 0 0 .228 1.371 3.251 3.251 0 0 0 .65 1.1 3.032 3.032 0 0 0 1.016.738 3.119 3.119 0 0 0 1.316.272 3.517 3.517 0 0 0 1.338-.256 3.371 3.371 0 0 0 1.093-.7 3.5 3.5 0 0 0 1.066-2.37v-.156a3.551 3.551 0 0 0-2.115-3.26 3.373 3.373 0 0 0-1.382-.284 3.015 3.015 0 0 0-1.316.284 3.052 3.052 0 0 0-1.016.773 3.473 3.473 0 0 0-.65 1.132 4.03 4.03 0 0 0-.224 1.356z" class="cls-4" data-name="Path 28587" transform="translate(-30.778 -109.875)"/>
                <path id="Path_28588" d="M90.039 125.522a.992.992 0 0 1-.067.361.872.872 0 0 1-.511.428 1.5 1.5 0 0 1-.289.033h-2.187a.983.983 0 0 1-.378-.061.584.584 0 0 1-.233-.172.951.951 0 0 1-.148-.272q-.061-.161-.128-.35l-.145-.5a6.7 6.7 0 0 1-.684.587 5.263 5.263 0 0 1-1.831.884 4.37 4.37 0 0 1-1.1.137 7.321 7.321 0 0 1-1.937-.254 7.143 7.143 0 0 1-3.193-1.861 7.278 7.278 0 0 1-1.127-1.471 7.154 7.154 0 0 1-.726-1.749 7.413 7.413 0 0 1-.255-1.962 7.269 7.269 0 0 1 2.109-5.18 7.192 7.192 0 0 1 5.13-2.105 5.036 5.036 0 0 1 1.282.156 4.9 4.9 0 0 1 1.09.423 4.412 4.412 0 0 1 .893.638 4.845 4.845 0 0 1 .7.806l.322-1.012c.074-.183.135-.334.183-.448a.8.8 0 0 1 .156-.256.414.414 0 0 1 .206-.111 1.643 1.643 0 0 1 .345-.028h1.653a1.5 1.5 0 0 1 .289.033.555.555 0 0 1 .289.156.712.712 0 0 1 .222.278.893.893 0 0 1 .067.354zM79.1 119.3a4.057 4.057 0 0 0 .228 1.371 3.217 3.217 0 0 0 .649 1.1 3.07 3.07 0 0 0 1.016.738 3.125 3.125 0 0 0 1.316.272 3.529 3.529 0 0 0 2.494-1.01 3.367 3.367 0 0 0 .738-1.1 3.614 3.614 0 0 0 0-2.726 3.591 3.591 0 0 0-.738-1.132 3.5 3.5 0 0 0-1.112-.773 3.361 3.361 0 0 0-1.382-.284 3.021 3.021 0 0 0-1.316.284 3.09 3.09 0 0 0-1.016.773 3.435 3.435 0 0 0-.649 1.132 4.03 4.03 0 0 0-.228 1.355z" class="cls-4" data-name="Path 28588" transform="translate(-22.46 -108.045)"/>
                <path id="Path_28589" d="M85.369 112.436a.688.688 0 0 1 .306-.156 1.48 1.48 0 0 1 .3-.033h1.677a.763.763 0 0 1 .345.072.739.739 0 0 1 .245.195 1.049 1.049 0 0 1 .161.276q.058.156.117.322l.232.973a2.668 2.668 0 0 1 .539-.708 4.128 4.128 0 0 1 .921-.663 5.734 5.734 0 0 1 1.271-.493 6.2 6.2 0 0 1 1.61-.195 5.065 5.065 0 0 1 2.259.487 5 5 0 0 1 1.688 1.329 5.852 5.852 0 0 1 1.054 1.966 7.817 7.817 0 0 1 .361 2.4v7.272a.967.967 0 0 1-.183.639.72.72 0 0 1-.582.217h-2.56a1 1 0 0 1-.656-.161.842.842 0 0 1-.178-.628v-7.229a1.977 1.977 0 0 0-.217-.9 2.6 2.6 0 0 0-.571-.754 2.75 2.75 0 0 0-.806-.517 2.335 2.335 0 0 0-.915-.189 2.065 2.065 0 0 0-.815.178 2.743 2.743 0 0 0-.767.495 2.892 2.892 0 0 0-.587.743 2.177 2.177 0 0 0-.272.927v7.218a1.052 1.052 0 0 1-.072.378.6.6 0 0 1-.217.289 1.018 1.018 0 0 1-.272.122 1.168 1.168 0 0 1-.293.033h-2.513a.782.782 0 0 1-.9-.856v-12.418a.809.809 0 0 1 .094-.387.7.7 0 0 1 .261-.278z" class="cls-4" data-name="Path 28589" transform="translate(-13.949 -108.04)"/>
                <path id="Path_28590" d="M104.494 125.866a1.973 1.973 0 0 0 .1-.489c.015-.178.022-.361.022-.554v-.15a.521.521 0 0 0-.006-.083.521.521 0 0 1-.006-.083v-.15q-.322.345-.656.678a4.517 4.517 0 0 1-.738.593 3.809 3.809 0 0 1-.915.423 3.965 3.965 0 0 1-1.19.161 7.4 7.4 0 0 1-2.776-.511 6.634 6.634 0 0 1-2.209-1.427 6.473 6.473 0 0 1-1.455-2.192 7.355 7.355 0 0 1-.521-2.809 7.7 7.7 0 0 1 .521-2.848 7.1 7.1 0 0 1 1.455-2.309 6.782 6.782 0 0 1 4.985-2.105 4.717 4.717 0 0 1 1.255.156 4.408 4.408 0 0 1 1.04.428 4.638 4.638 0 0 1 .86.637 7.957 7.957 0 0 1 .723.778l.309-.99.122-.343a.84.84 0 0 1 .145-.261.568.568 0 0 1 .228-.161.987.987 0 0 1 .361-.056h1.652a.921.921 0 0 1 .311.056 1.006 1.006 0 0 1 .284.156.738.738 0 0 1 .206.256.782.782 0 0 1 .078.354v11.3a7.94 7.94 0 0 1-.567 3.087 6.479 6.479 0 0 1-3.875 3.708 8.374 8.374 0 0 1-2.887.489 8.518 8.518 0 0 1-1.288-.106 9.524 9.524 0 0 1-1.371-.317 8.237 8.237 0 0 1-1.321-.539 5.332 5.332 0 0 1-1.127-.76 1.12 1.12 0 0 1-.284-.306.74.74 0 0 1-.117-.406 1.061 1.061 0 0 1 .211-.587l1.054-1.455a1.5 1.5 0 0 1 .289-.25.535.535 0 0 1 .289-.083 1.123 1.123 0 0 1 .61.267 2.223 2.223 0 0 0 .639.428 4.455 4.455 0 0 0 .743.256 4.779 4.779 0 0 0 .756.12c.248.019.473.028.671.028a4.388 4.388 0 0 0 1.045-.132 4.13 4.13 0 0 0 1.016-.395 3.454 3.454 0 0 0 .832-.639 2 2 0 0 0 .497-.863zm-6.351-6.6a4.09 4.09 0 0 0 .226 1.382 3.251 3.251 0 0 0 .65 1.1 2.986 2.986 0 0 0 1.016.732 3.181 3.181 0 0 0 1.316.267 3.578 3.578 0 0 0 1.338-.25 3.324 3.324 0 0 0 1.093-.693 3.5 3.5 0 0 0 .751-1.043 3.392 3.392 0 0 0 .317-1.3v-.361a3.385 3.385 0 0 0-.317-1.282 3.646 3.646 0 0 0-.751-1.066 3.522 3.522 0 0 0-1.093-.734 3.322 3.322 0 0 0-1.338-.272 3.021 3.021 0 0 0-1.316.284 3.142 3.142 0 0 0-1.016.762 3.345 3.345 0 0 0-.65 1.121 4.021 4.021 0 0 0-.226 1.358z" class="cls-4" data-name="Path 28590" transform="translate(-6.213 -108.055)"/>
                <path id="Path_28591" d="M116.046 124.488a7.079 7.079 0 0 1-2.22 1.538 6.722 6.722 0 0 1-2.743.56 7.084 7.084 0 0 1-3.653-1 7.529 7.529 0 0 1-2.628-2.632 7.345 7.345 0 0 1-.743-1.744 7.231 7.231 0 0 1 0-3.853 7.228 7.228 0 0 1 .743-1.736 7.48 7.48 0 0 1 1.151-1.477 7.324 7.324 0 0 1 3.208-1.883 7.014 7.014 0 0 1 1.922-.261 6.693 6.693 0 0 1 2.743.562 7.079 7.079 0 0 1 2.22 1.538v-1.355a.432.432 0 0 1 .489-.489h1.143q.523 0 .523.489v13.135a.461.461 0 0 1-.145.356.491.491 0 0 1-.345.133h-1.155a.493.493 0 0 1-.372-.145.48.48 0 0 1-.139-.345zm.111-5.208a5.115 5.115 0 0 0-.4-1.994 5.385 5.385 0 0 0-1.088-1.66 5.276 5.276 0 0 0-1.614-1.132 4.711 4.711 0 0 0-1.968-.421 4.651 4.651 0 0 0-1.959.421 5.238 5.238 0 0 0-1.6 1.132 5.322 5.322 0 0 0-1.077 1.66 5.238 5.238 0 0 0 0 3.981 5.469 5.469 0 0 0 1.077 1.683 5.227 5.227 0 0 0 1.6 1.16 4.524 4.524 0 0 0 1.959.434 4.582 4.582 0 0 0 1.968-.434 5.263 5.263 0 0 0 1.614-1.16 5.534 5.534 0 0 0 1.088-1.683 5.119 5.119 0 0 0 .4-1.986z" class="cls-5" data-name="Path 28591" transform="translate(2.022 -108.065)"/>
                <path id="Path_28592" d="M126.146 128.17a.432.432 0 0 1-.489-.489v-1.344a7.053 7.053 0 0 1-2.22 1.533 6.78 6.78 0 0 1-2.743.554 7.094 7.094 0 0 1-1.916-.259 7.306 7.306 0 0 1-1.738-.739 7.413 7.413 0 0 1-1.477-1.143 7.6 7.6 0 0 1-1.149-1.477 7.136 7.136 0 0 1-.743-1.738 7.231 7.231 0 0 1 0-3.853 7.257 7.257 0 0 1 .743-1.742 7.468 7.468 0 0 1 1.149-1.483 7.589 7.589 0 0 1 1.477-1.151 7.267 7.267 0 0 1 1.733-.743 7.014 7.014 0 0 1 1.922-.261 6.693 6.693 0 0 1 2.743.562 7.069 7.069 0 0 1 2.22 1.538v-5.565a.48.48 0 0 1 .139-.345.493.493 0 0 1 .372-.145h1.155a.483.483 0 0 1 .343.133.461.461 0 0 1 .145.356v17.311c0 .326-.174.489-.521.489zm-.378-7.029a5.1 5.1 0 0 0-.4-1.988 5.508 5.508 0 0 0-1.086-1.681 5.291 5.291 0 0 0-1.614-1.162 4.608 4.608 0 0 0-1.968-.432 4.543 4.543 0 0 0-1.959.432 5.263 5.263 0 0 0-1.6 1.162 5.478 5.478 0 0 0-1.075 1.681 5.229 5.229 0 0 0 0 3.986 5.291 5.291 0 0 0 1.075 1.655 5.206 5.206 0 0 0 1.6 1.132 4.618 4.618 0 0 0 1.959.423 4.684 4.684 0 0 0 1.968-.423 5.235 5.235 0 0 0 1.614-1.132 5.321 5.321 0 0 0 1.086-1.655 5.061 5.061 0 0 0 .4-1.998z" class="cls-5" data-name="Path 28592" transform="translate(10.222 -109.87)"/>
                <path id="Path_28593" d="M135.268 124.488a7.087 7.087 0 0 1-2.222 1.538 6.71 6.71 0 0 1-2.743.56 7.091 7.091 0 0 1-1.914-.259 7.174 7.174 0 0 1-1.738-.745 7.5 7.5 0 0 1-2.626-2.632 7.2 7.2 0 0 1-.743-1.744 7.166 7.166 0 0 1 .743-5.589 7.542 7.542 0 0 1 1.149-1.477 7.316 7.316 0 0 1 3.21-1.883A7 7 0 0 1 130.3 112a6.68 6.68 0 0 1 2.743.562 7.086 7.086 0 0 1 2.222 1.538v-1.355a.432.432 0 0 1 .487-.489h1.148c.347 0 .521.163.521.489v13.135a.461.461 0 0 1-.145.356.491.491 0 0 1-.345.133h-1.155a.486.486 0 0 1-.371-.145.48.48 0 0 1-.139-.345zm.111-5.208a5.083 5.083 0 0 0-.4-1.994 5.238 5.238 0 0 0-2.7-2.793 4.72 4.72 0 0 0-1.97-.421 4.636 4.636 0 0 0-1.957.421 5.246 5.246 0 0 0-1.6 1.132 5.317 5.317 0 0 0-1.075 1.66 5.215 5.215 0 0 0 0 3.981 5.464 5.464 0 0 0 1.075 1.683 5.235 5.235 0 0 0 1.6 1.16 4.51 4.51 0 0 0 1.957.434 4.591 4.591 0 0 0 1.97-.434 5.284 5.284 0 0 0 1.614-1.16 5.5 5.5 0 0 0 1.086-1.683 5.087 5.087 0 0 0 .4-1.985z" class="cls-5" data-name="Path 28593" transform="translate(18.422 -108.065)"/>
            </g>
            <g id="Group_16603" data-name="Group 16603" transform="translate(.324 .541)">
                <path id="Path_28594" d="M57.429 134.029l.022-14.354a2.06 2.06 0 1 0-2.8-1.915 2.018 2.018 0 0 0 .022.282l-12.279 7.176a2 2 0 0 0-.8-.378v-1.8h-.878v1.8a2.058 2.058 0 0 0-1.6 2.017 2.11 2.11 0 0 0 .095.624l-1.536.9.439.771 1.538-.9a2.011 2.011 0 0 0 3 0l1.54.9.437-.771-1.536-.9a2.088 2.088 0 0 0 .095-.622 2.239 2.239 0 0 0-.022-.3l12.268-7.171a2.093 2.093 0 0 0 .48.284l-.022 14.375a2.029 2.029 0 0 0-.708.511l-.873-.511-.439.771.871.509a2.1 2.1 0 0 0-.095.624 2.127 2.127 0 0 0 .019.267l-12.277 7.189a2 2 0 0 0-2.5.019l-12.255-7.178a2.239 2.239 0 0 0 .022-.3 2.1 2.1 0 0 0-.095-.624l.869-.509-.431-.767-.873.511a2.039 2.039 0 0 0-.758-.53l.02-14.354a2.068 2.068 0 0 0 1.253-2.2l12.255-7.189a2.016 2.016 0 0 0 .821.395v1.019h.878v-1.021a2.062 2.062 0 1 0-2.476-2.017 2.134 2.134 0 0 0 .019.269l-12.266 7.2a2 2 0 0 0-1.247-.436 2.071 2.071 0 0 0-.769 3.979l-.022 14.375a2.071 2.071 0 0 0 .791 3.97 2 2 0 0 0 1.236-.427l12.277 7.189a2.1 2.1 0 0 0-.019.267 2.037 2.037 0 1 0 4.073 0 2.239 2.239 0 0 0-.022-.3l12.257-7.178a2.015 2.015 0 0 0 1.262.445 2.069 2.069 0 0 0 .741-3.988z" class="cls-6" data-name="Path 28594" transform="translate(-23.586 -106.599)"/>
                <path id="Rectangle_7987" d="M0 0h.877v2.177H0z" class="cls-7" data-name="Rectangle 7987" transform="rotate(-59.992 19.247 -18.619)"/>
                <path id="Rectangle_7988" d="M0 0h.877v2.177H0z" class="cls-7" data-name="Rectangle 7988" transform="rotate(-59.992 16.021 -16.853)"/>
                <path id="Rectangle_7989" d="M0 0h.877v2.177H0z" class="cls-7" data-name="Rectangle 7989" transform="rotate(-59.995 22.413 -20.418)"/>
                <path id="Rectangle_7990" d="M0 0h.877v2.177H0z" class="cls-7" data-name="Rectangle 7990" transform="rotate(-59.995 12.879 -15.038)"/>
                <path id="Rectangle_7991" d="M0 0h.877v1.973H0z" class="cls-7" data-name="Rectangle 7991" transform="translate(17.13 23.127)"/>
                <path id="Rectangle_7992" d="M0 0h.877v1.973H0z" class="cls-7" data-name="Rectangle 7992" transform="translate(17.13 33.217)"/>
                <path id="Rectangle_7993" d="M0 0h.877v1.973H0z" class="cls-7" data-name="Rectangle 7993" transform="translate(17.13 26.464)"/>
                <path id="Rectangle_7994" d="M0 0h.877v1.973H0z" class="cls-7" data-name="Rectangle 7994" transform="translate(17.13 29.8)"/>
                <path id="Rectangle_7995" d="M0 0h.877v1.973H0z" class="cls-7" data-name="Rectangle 7995" transform="translate(17.13 9.779)"/>
                <path id="Rectangle_7996" d="M0 0h.877v1.973H0z" class="cls-7" data-name="Rectangle 7996" transform="translate(17.13 6.442)"/>
                <path id="Rectangle_7997" d="M0 0h.877v1.973H0z" class="cls-7" data-name="Rectangle 7997" transform="translate(17.13 13.116)"/>
                <path id="Rectangle_7998" d="M0 0h1.973v.877H0z" class="cls-7" data-name="Rectangle 7998" transform="rotate(-29.992 52.77 3.035)"/>
                <path id="Rectangle_7999" d="M0 0h1.973v.877H0z" class="cls-7" data-name="Rectangle 7999" transform="rotate(-30.017 51.04 -3.1)"/>
                <path id="Rectangle_8000" d="M0 0h1.973v.877H0z" class="cls-7" data-name="Rectangle 8000" transform="rotate(-30.011 49.361 -9.247)"/>
                <path id="Rectangle_8001" d="M0 0h.877v1.972H0z" class="cls-7" data-name="Rectangle 8001" transform="rotate(-60 33.854 -8.855)"/>
                <path id="Rectangle_8002" d="M0 0h.877v1.973H0z" class="cls-7" data-name="Rectangle 8002" transform="rotate(-60 22.379 -2.328)"/>
                <path id="Rectangle_8003" d="M0 0h.877v1.973H0z" class="cls-7" data-name="Rectangle 8003" transform="rotate(-59.989 13.776 2.565)"/>
                <path id="Rectangle_8004" d="M0 0h.877v1.973H0z" class="cls-7" data-name="Rectangle 8004" transform="rotate(-60 19.51 -.697)"/>
                <path id="Rectangle_8005" d="M0 0h.877v1.973H0z" class="cls-7" data-name="Rectangle 8005" transform="rotate(-60 36.722 -10.486)"/>
                <path id="Rectangle_8006" d="M0 0h.877v1.973H0z" class="cls-7" data-name="Rectangle 8006" transform="rotate(-59.994 30.986 -7.226)"/>
                <path id="Rectangle_8007" d="M0 0h.877v1.972H0z" class="cls-7" data-name="Rectangle 8007" transform="rotate(-59.996 16.643 .934)"/>
            </g>
            <circle id="Ellipse_1272" cx="2.481" cy="2.481" r="2.481" class="cls-6" data-name="Ellipse 1272" transform="translate(0 9.098)"/>
            <circle id="Ellipse_1273" cx="2.481" cy="2.481" r="2.481" class="cls-6" data-name="Ellipse 1273" transform="translate(0 27.343)"/>
            <circle id="Ellipse_1274" cx="2.481" cy="2.481" r="2.481" class="cls-6" data-name="Ellipse 1274" transform="translate(15.304 36.497)"/>
            <circle id="Ellipse_1275" cx="2.481" cy="2.481" r="2.481" class="cls-6" data-name="Ellipse 1275" transform="translate(30.675 27.343)"/>
            <circle id="Ellipse_1276" cx="2.481" cy="2.481" r="2.481" class="cls-6" data-name="Ellipse 1276" transform="translate(15.412 18.249)"/>
            <circle id="Ellipse_1277" cx="2.481" cy="2.481" r="2.481" class="cls-6" data-name="Ellipse 1277" transform="translate(15.304)"/>
            <circle id="Ellipse_1278" cx="2.481" cy="2.481" r="2.481" class="cls-6" data-name="Ellipse 1278" transform="translate(31.006 8.819)"/>
        </g>
    </g>
</svg>
